<svg width="32" height="32" viewBox="0 0 32 32" fill="none" xmlns="http://www.w3.org/2000/svg">
<path d="M19.8276 11.1889C19.4609 10.7523 18.9475 10.45 18.3056 10.2485C17.6822 10.0302 17.077 9.92947 16.5086 9.92947C16.1785 9.92947 15.8301 9.96305 15.4817 10.0302C15.1333 10.0974 14.8032 10.2149 14.4915 10.3829C14.1797 10.534 13.923 10.7187 13.7213 10.9706C13.5196 11.2225 13.4279 11.5248 13.4279 11.8774C13.4279 12.4484 13.6663 12.885 14.1247 13.1872C14.6015 13.4895 15.1883 13.7582 15.8851 13.9597C16.6003 14.178 17.3888 14.3963 18.1956 14.5978C19.0208 14.8161 19.7727 15.1184 20.4878 15.5046C21.203 15.8909 21.8081 16.4282 22.2848 17.0832C22.7616 17.7381 22.9817 18.628 22.9817 19.7363C22.9817 20.7943 22.7616 21.7179 22.3399 22.5072C21.9181 23.2964 21.3313 23.9513 20.5795 24.4718C19.8644 24.9925 19.0025 25.3786 18.0306 25.6305C17.077 25.8824 16.0501 26 14.9866 26C13.6296 26 12.3827 25.8153 11.2274 25.429C10.0721 25.0596 8.99022 24.4383 8 23.5986L11.2641 20.3241C11.7408 20.895 12.3276 21.3484 13.0245 21.6675C13.7396 21.9698 14.4915 22.1209 15.2616 22.1209C15.6284 22.1209 16.0135 22.0873 16.3802 22.0201C16.7653 21.9362 17.1137 21.8018 17.4071 21.6507C17.7188 21.4828 17.9572 21.2813 18.1406 21.0294C18.3423 20.7775 18.434 20.4753 18.434 20.1394C18.434 19.5685 18.1956 19.1151 17.7005 18.796C17.2237 18.4601 16.6369 18.1746 15.9034 17.9395C15.1883 17.7044 14.3998 17.4693 13.5562 17.2342C12.7127 16.9991 11.9242 16.6801 11.209 16.2939C10.4939 15.9076 9.87042 15.3871 9.39364 14.7322C8.91687 14.094 8.69682 13.2376 8.69682 12.1797C8.69682 11.1553 8.91687 10.2653 9.33864 9.49287C9.79706 8.72041 10.3839 8.08228 11.099 7.56171C11.8509 7.04114 12.6944 6.65491 13.6479 6.40302C14.6015 6.13434 15.5917 6 16.6186 6C17.7922 6 18.9291 6.15113 20.0294 6.4534C21.1296 6.75567 22.1199 7.27624 23 7.98153L19.8276 11.1889Z" fill="black"/>
</svg>
